<svg id="svg" version="1.1" xmlns="http://www.w3.org/2000/svg" xmlns:xlink="http://www.w3.org/1999/xlink" width="400" height="400" viewBox="0, 0, 400,400"><g id="svgg"><path id="path0" d="M165.200 116.000 L 165.200 120.800 166.800 120.800 L 168.400 120.800 168.400 116.000 L 168.400 111.200 166.800 111.200 L 165.200 111.200 165.200 116.000 M178.467 119.778 C 174.823 123.546,174.836 123.519,176.126 124.730 C 177.440 125.965,177.467 125.952,181.137 122.264 L 184.456 118.927 183.392 117.664 C 181.993 116.001,182.211 115.907,178.467 119.778 M150.290 117.892 L 149.198 118.983 152.864 122.664 L 156.530 126.346 157.665 125.130 C 159.116 123.577,159.306 124.021,155.529 120.151 C 151.866 116.398,151.808 116.373,150.290 117.892 M162.400 125.265 C 158.655 127.428,157.200 129.994,157.200 134.438 L 157.200 137.600 156.016 137.600 L 154.831 137.600 154.716 141.100 L 154.600 144.600 147.689 144.800 L 140.777 145.000 127.489 158.427 C 120.180 165.812,108.495 177.710,101.523 184.867 C 87.675 199.081,88.305 198.575,78.200 203.602 C 74.900 205.244,72.140 206.725,72.067 206.893 C 71.993 207.062,71.588 207.200,71.167 207.200 C 70.745 207.200,70.400 207.380,70.400 207.600 C 70.400 207.820,70.040 208.000,69.600 208.000 C 69.160 208.000,68.800 208.180,68.800 208.400 C 68.800 208.620,68.455 208.800,68.033 208.800 C 67.612 208.800,67.207 208.935,67.133 209.100 C 67.060 209.265,66.183 209.814,65.184 210.320 C 62.091 211.886,62.224 211.117,62.000 228.800 L 61.800 244.600 60.600 244.704 C 55.825 245.119,55.893 244.901,56.072 259.239 C 56.233 272.100,55.207 270.800,65.200 270.800 C 73.613 270.800,73.791 270.760,74.062 268.800 C 74.197 267.821,74.281 267.798,78.072 267.686 L 81.944 267.572 82.142 264.086 C 82.388 259.763,82.775 257.263,83.242 256.974 C 83.439 256.852,83.600 256.337,83.600 255.829 C 83.600 252.774,92.327 241.200,94.631 241.200 C 94.944 241.200,95.200 241.058,95.200 240.884 C 95.200 240.351,101.290 237.473,103.400 237.009 C 107.907 236.018,117.254 235.916,117.832 236.852 C 117.950 237.043,118.489 237.200,119.029 237.200 C 119.569 237.200,120.323 237.361,120.705 237.558 C 121.087 237.755,122.570 238.479,124.000 239.167 C 130.175 242.139,138.400 251.303,138.400 255.210 C 138.400 255.619,138.580 256.064,138.800 256.200 C 139.020 256.336,139.200 257.067,139.200 257.824 C 139.200 258.581,139.380 259.200,139.600 259.200 C 139.841 259.200,140.000 260.867,140.000 263.400 L 140.000 267.600 198.770 267.600 L 257.539 267.600 257.742 264.500 C 258.012 260.394,258.401 257.886,258.841 257.420 C 259.038 257.211,259.200 256.714,259.200 256.315 C 259.200 255.916,259.359 255.277,259.553 254.895 C 259.748 254.513,260.148 253.660,260.443 253.000 C 261.416 250.821,264.074 247.033,266.153 244.863 C 269.615 241.250,273.877 238.727,279.800 236.787 C 281.753 236.147,292.353 236.057,293.686 236.670 C 294.189 236.900,295.320 237.306,296.200 237.572 C 298.120 238.151,301.347 239.681,301.533 240.100 C 301.607 240.265,301.895 240.400,302.174 240.400 C 302.453 240.400,303.246 240.940,303.937 241.600 C 304.628 242.260,305.348 242.800,305.538 242.800 C 305.865 242.800,308.977 246.018,310.503 247.934 C 311.167 248.767,314.147 254.465,314.826 256.200 C 315.476 257.859,315.717 259.520,315.881 263.488 L 316.051 267.576 320.921 267.688 C 325.429 267.792,325.801 267.859,325.936 268.600 C 326.320 270.701,326.739 270.800,335.200 270.800 C 345.287 270.800,344.400 271.698,344.400 261.487 C 344.400 251.873,344.339 251.681,341.244 251.518 L 339.000 251.400 338.899 199.084 C 338.807 151.778,338.735 146.673,338.153 145.785 L 337.509 144.802 258.255 144.701 L 179.000 144.600 178.884 141.100 L 178.769 137.600 177.584 137.600 L 176.400 137.600 176.400 134.438 C 176.400 126.756,168.632 121.666,162.400 125.265 M143.700 132.265 C 142.949 132.568,143.059 135.460,143.833 135.757 C 144.181 135.891,146.521 136.000,149.033 136.000 L 153.600 136.000 153.600 134.000 L 153.600 132.000 148.900 132.032 C 146.315 132.049,143.975 132.154,143.700 132.265 M180.000 134.000 L 180.000 135.600 185.000 135.600 L 190.000 135.600 190.000 134.000 L 190.000 132.400 185.000 132.400 L 180.000 132.400 180.000 134.000 M269.600 169.400 L 269.600 179.600 279.407 179.600 L 289.214 179.600 289.107 189.700 L 289.000 199.800 279.300 199.907 L 269.600 200.014 269.600 209.807 L 269.600 219.600 259.407 219.600 L 249.214 219.600 249.107 209.900 L 249.000 200.200 239.000 200.000 L 229.000 199.800 228.893 189.707 L 228.786 179.614 238.893 179.507 L 249.000 179.400 249.107 169.300 L 249.214 159.200 259.407 159.200 L 269.600 159.200 269.600 169.400 M165.346 167.229 L 166.400 168.058 166.400 184.953 C 166.400 198.911,166.301 201.982,165.832 202.624 C 165.273 203.388,103.852 204.127,100.900 203.405 C 99.076 202.959,100.147 201.601,110.705 190.974 C 116.593 185.048,124.093 177.355,127.370 173.877 C 131.617 169.371,133.659 167.488,134.473 167.325 C 135.102 167.200,135.714 166.940,135.832 166.748 C 136.363 165.890,164.220 166.343,165.346 167.229 M105.800 242.000 C 105.664 242.220,105.034 242.400,104.400 242.400 C 103.766 242.400,103.136 242.580,103.000 242.800 C 102.864 243.020,102.313 243.200,101.776 243.200 C 101.239 243.200,100.800 243.380,100.800 243.600 C 100.800 243.820,100.606 244.000,100.368 244.000 C 98.673 244.000,90.800 251.055,90.800 252.574 C 90.800 252.881,90.665 253.193,90.500 253.267 C 88.993 253.936,86.551 262.806,86.935 266.218 C 87.508 271.320,87.535 271.415,89.634 275.800 C 91.713 280.142,95.648 284.270,99.521 286.172 C 100.774 286.788,102.113 287.451,102.495 287.646 C 102.877 287.841,103.606 288.000,104.115 288.000 C 104.624 288.000,105.230 288.190,105.463 288.423 C 105.995 288.955,115.586 288.713,117.686 288.114 C 122.210 286.825,130.086 280.887,130.969 278.100 C 131.126 277.605,131.422 277.200,131.627 277.200 C 131.832 277.200,132.000 276.840,132.000 276.400 C 132.000 275.960,132.136 275.600,132.303 275.600 C 132.938 275.600,134.800 267.930,134.800 265.314 C 134.800 260.908,132.776 254.823,130.152 251.338 C 127.217 247.442,121.705 243.200,119.578 243.200 C 119.176 243.200,118.736 243.020,118.600 242.800 C 118.464 242.580,117.924 242.400,117.400 242.400 C 116.876 242.400,116.336 242.220,116.200 242.000 C 116.057 241.768,113.870 241.600,111.000 241.600 C 108.130 241.600,105.943 241.768,105.800 242.000 M281.800 242.000 C 281.664 242.220,281.111 242.400,280.571 242.400 C 280.031 242.400,279.277 242.557,278.895 242.750 C 275.347 244.537,274.469 244.983,273.600 245.440 C 267.686 248.551,261.554 261.248,263.165 267.048 C 263.402 267.902,263.597 269.264,263.598 270.076 C 263.599 270.888,263.780 271.664,264.000 271.800 C 264.220 271.936,264.400 272.388,264.400 272.804 C 264.400 276.312,271.496 284.422,276.600 286.747 C 277.260 287.047,278.113 287.452,278.495 287.647 C 278.877 287.841,279.631 288.000,280.171 288.000 C 280.711 288.000,281.264 288.180,281.400 288.400 C 281.743 288.955,291.000 288.909,292.772 288.345 C 296.333 287.209,299.421 285.740,301.032 284.414 C 301.710 283.856,302.711 283.040,303.257 282.600 C 303.802 282.160,304.679 281.170,305.205 280.400 C 305.731 279.630,306.279 278.910,306.422 278.800 C 306.644 278.630,307.276 277.437,309.651 272.705 C 309.843 272.323,310.000 271.389,310.000 270.629 C 310.000 269.869,310.180 269.136,310.400 269.000 C 310.620 268.864,310.800 267.154,310.800 265.200 C 310.800 263.246,310.620 261.536,310.400 261.400 C 310.180 261.264,310.000 260.443,310.000 259.576 C 310.000 258.709,309.820 258.000,309.600 258.000 C 309.380 258.000,309.200 257.728,309.200 257.395 C 309.200 256.808,309.042 256.407,308.062 254.500 C 306.663 251.777,305.904 250.728,303.795 248.611 C 301.695 246.502,299.526 244.816,298.900 244.807 C 298.625 244.803,298.400 244.620,298.400 244.400 C 298.400 244.180,298.040 244.000,297.600 244.000 C 297.160 244.000,296.800 243.859,296.800 243.687 C 296.800 243.515,295.945 243.143,294.900 242.861 C 293.855 242.578,292.687 242.179,292.305 241.973 C 291.364 241.467,282.115 241.491,281.800 242.000 M113.800 253.200 C 113.936 253.420,114.409 253.600,114.852 253.600 C 116.417 253.600,121.198 257.441,121.200 258.700 C 121.200 258.975,121.380 259.200,121.600 259.200 C 121.820 259.200,122.000 259.524,122.000 259.920 C 122.000 260.316,122.209 260.849,122.465 261.105 C 125.086 263.726,120.530 276.000,116.936 276.000 C 116.641 276.000,116.400 276.180,116.400 276.400 C 116.400 276.620,115.961 276.800,115.424 276.800 C 114.887 276.800,114.336 276.980,114.200 277.200 C 113.096 278.987,105.593 277.083,102.494 274.229 C 100.122 272.046,99.489 270.710,98.524 265.861 C 97.902 262.733,100.819 257.008,104.084 254.947 C 107.036 253.083,113.059 252.000,113.800 253.200 M289.800 253.200 C 289.936 253.420,290.399 253.600,290.829 253.600 C 292.667 253.600,296.356 256.827,297.917 259.800 C 300.824 265.335,297.975 273.831,292.400 276.258 C 291.630 276.593,290.687 277.032,290.305 277.234 C 288.453 278.211,283.086 277.466,280.696 275.900 C 280.109 275.515,279.511 275.200,279.368 275.200 C 278.907 275.200,276.400 272.262,276.400 271.722 C 276.400 271.435,276.220 271.200,276.000 271.200 C 275.780 271.200,275.600 270.851,275.600 270.424 C 275.600 269.997,275.420 269.536,275.200 269.400 C 274.355 268.878,274.727 261.812,275.695 259.999 C 276.772 257.980,279.093 255.200,279.700 255.200 C 279.940 255.200,280.426 254.939,280.779 254.619 C 282.362 253.187,289.133 252.121,289.800 253.200 " stroke="none" fill="#fbfbfb" fill-rule="evenodd"></path><path id="path1" d="M168.800 116.200 L 168.800 121.200 167.000 121.200 C 164.901 121.200,164.797 121.464,166.322 122.925 C 167.126 123.695,167.863 124.000,168.922 124.000 C 169.735 124.000,170.400 124.180,170.400 124.400 C 170.400 124.620,170.760 124.800,171.200 124.800 C 171.640 124.800,172.000 124.936,172.000 125.102 C 172.000 125.269,172.511 125.631,173.135 125.907 C 173.759 126.183,174.524 126.902,174.834 127.505 C 175.145 128.107,175.489 128.690,175.599 128.800 C 176.251 129.450,176.800 130.967,176.800 132.120 C 176.800 133.055,177.133 133.769,177.922 134.525 C 179.422 135.962,179.536 135.908,179.678 133.700 L 179.800 131.800 184.000 131.680 C 190.468 131.494,190.800 131.608,190.800 134.018 L 190.800 136.000 185.400 136.000 C 182.430 136.000,180.000 136.138,180.000 136.308 C 180.000 136.477,181.761 138.370,183.914 140.514 L 187.827 144.413 198.916 144.306 L 210.005 144.200 197.503 131.712 L 185.000 119.224 181.600 122.535 C 177.425 126.601,177.226 126.686,175.697 125.069 C 174.301 123.592,174.388 123.134,176.433 121.168 L 177.937 119.723 173.662 115.462 C 171.311 113.118,169.255 111.200,169.093 111.200 C 168.932 111.200,168.800 113.450,168.800 116.200 M158.070 125.326 C 157.135 126.321,156.941 127.393,157.620 127.813 C 158.306 128.236,160.835 125.524,160.326 124.911 C 159.705 124.162,159.050 124.282,158.070 125.326 M154.000 134.600 L 154.000 136.400 149.200 136.400 C 146.560 136.400,144.400 136.539,144.400 136.708 C 144.400 137.766,151.896 144.400,153.092 144.400 L 154.369 144.400 154.484 140.900 C 154.600 137.412,154.604 137.400,155.700 137.273 C 157.230 137.097,157.219 135.351,155.678 133.875 C 154.170 132.430,154.000 132.503,154.000 134.600 M339.200 198.450 L 339.200 250.698 341.217 250.892 C 344.757 251.232,344.800 251.357,344.800 261.321 C 344.800 272.227,345.817 271.200,335.013 271.200 C 326.121 271.200,325.649 271.094,325.613 269.100 C 325.601 268.480,325.131 268.399,321.500 268.395 C 315.688 268.387,315.603 268.350,315.588 265.853 C 315.571 263.088,314.907 258.078,314.362 256.600 C 312.983 252.862,312.076 250.961,311.407 250.406 C 311.073 250.129,310.796 249.699,310.791 249.451 C 310.786 249.203,310.201 248.348,309.491 247.551 C 308.781 246.754,307.840 245.670,307.400 245.143 C 305.478 242.838,298.474 238.400,296.759 238.400 C 296.342 238.400,296.000 238.220,296.000 238.000 C 296.000 237.780,295.475 237.600,294.833 237.600 C 294.192 237.600,293.603 237.409,293.525 237.176 C 293.329 236.586,281.265 236.575,280.676 237.164 C 280.436 237.404,279.824 237.600,279.315 237.600 C 278.806 237.600,278.077 237.761,277.695 237.958 C 277.313 238.155,275.740 238.916,274.200 239.650 C 272.660 240.384,271.310 241.086,271.200 241.211 C 271.090 241.336,270.402 241.856,269.672 242.367 C 266.855 244.335,262.458 249.798,260.952 253.200 C 260.612 253.970,260.168 254.913,259.966 255.295 C 259.765 255.677,259.600 256.316,259.600 256.715 C 259.600 257.114,259.437 257.611,259.237 257.820 C 258.888 258.185,258.732 259.221,258.091 265.400 L 257.800 268.200 199.600 268.310 C 167.590 268.370,140.995 268.321,140.500 268.202 C 139.638 267.994,139.600 267.808,139.600 263.816 C 139.600 261.468,139.425 259.539,139.200 259.400 C 138.980 259.264,138.800 258.533,138.800 257.776 C 138.800 257.019,138.620 256.400,138.400 256.400 C 138.180 256.400,138.000 256.051,138.000 255.624 C 138.000 255.197,137.820 254.736,137.600 254.600 C 137.380 254.464,137.200 254.103,137.200 253.798 C 137.200 251.750,129.642 242.694,126.700 241.217 C 126.095 240.913,125.600 240.515,125.600 240.332 C 125.600 240.150,125.240 240.000,124.800 240.000 C 124.360 240.000,124.000 239.820,124.000 239.600 C 124.000 239.380,123.640 239.200,123.200 239.200 C 122.760 239.200,122.400 239.020,122.400 238.800 C 122.400 238.580,121.961 238.400,121.424 238.400 C 120.887 238.400,120.336 238.220,120.200 238.000 C 120.064 237.780,119.459 237.600,118.856 237.600 C 118.253 237.600,117.565 237.405,117.326 237.166 C 116.741 236.581,105.253 236.587,104.668 237.172 C 104.433 237.407,103.747 237.600,103.144 237.600 C 102.541 237.600,101.936 237.780,101.800 238.000 C 101.664 238.220,101.203 238.400,100.776 238.400 C 100.349 238.400,100.000 238.580,100.000 238.800 C 100.000 239.020,99.713 239.200,99.362 239.200 C 99.011 239.200,98.246 239.521,97.662 239.914 C 97.078 240.307,96.064 240.892,95.408 241.214 C 88.832 244.446,83.050 254.848,82.523 264.396 C 82.300 268.443,82.365 268.386,77.900 268.394 C 74.628 268.400,74.400 268.454,74.400 269.229 C 74.400 271.054,73.748 271.200,65.595 271.200 C 60.683 271.200,57.981 271.343,58.067 271.599 C 58.140 271.818,86.369 300.168,120.797 334.599 L 183.394 397.200 256.873 397.200 C 305.428 397.200,330.437 397.064,330.600 396.800 C 330.736 396.580,331.636 396.400,332.600 396.400 C 333.564 396.400,334.464 396.220,334.600 396.000 C 334.736 395.780,335.647 395.600,336.624 395.600 C 337.601 395.600,338.400 395.420,338.400 395.200 C 338.400 394.980,339.030 394.800,339.800 394.800 C 340.570 394.800,341.200 394.620,341.200 394.400 C 341.200 394.180,341.650 394.000,342.200 394.000 C 342.750 394.000,343.200 393.820,343.200 393.600 C 343.200 393.380,343.740 393.200,344.400 393.200 C 345.060 393.200,345.600 393.020,345.600 392.800 C 345.600 392.580,345.960 392.400,346.400 392.400 C 346.840 392.400,347.200 392.220,347.200 392.000 C 347.200 391.780,347.662 391.600,348.226 391.600 C 348.790 391.600,350.235 391.150,351.437 390.600 C 352.640 390.050,353.798 389.600,354.012 389.600 C 354.225 389.600,354.400 389.420,354.400 389.200 C 354.400 388.980,354.760 388.800,355.200 388.800 C 355.640 388.800,356.000 388.620,356.000 388.400 C 356.000 388.180,356.360 388.000,356.800 388.000 C 357.240 388.000,357.600 387.820,357.600 387.600 C 357.600 387.380,357.788 387.200,358.017 387.200 C 358.246 387.200,358.820 386.840,359.292 386.400 C 359.764 385.960,360.387 385.600,360.675 385.600 C 360.964 385.600,361.200 385.420,361.200 385.200 C 361.200 384.980,361.436 384.800,361.725 384.800 C 362.013 384.800,362.636 384.440,363.108 384.000 C 363.580 383.560,364.255 383.200,364.607 383.200 C 364.959 383.200,365.136 383.020,365.000 382.800 C 364.864 382.580,364.961 382.400,365.216 382.400 C 365.471 382.400,366.183 381.860,366.800 381.200 C 367.417 380.540,368.125 380.000,368.375 380.000 C 368.967 380.000,380.000 368.967,380.000 368.375 C 380.000 368.125,380.540 367.417,381.200 366.800 C 381.860 366.183,382.400 365.471,382.400 365.216 C 382.400 364.961,382.580 364.864,382.800 365.000 C 383.020 365.136,383.200 364.959,383.200 364.607 C 383.200 364.255,383.560 363.580,384.000 363.108 C 384.440 362.636,384.800 362.013,384.800 361.725 C 384.800 361.436,384.980 361.200,385.200 361.200 C 385.420 361.200,385.600 360.964,385.600 360.675 C 385.600 360.387,385.960 359.764,386.400 359.292 C 386.840 358.820,387.200 358.246,387.200 358.017 C 387.200 357.788,387.380 357.600,387.600 357.600 C 387.820 357.600,388.000 357.240,388.000 356.800 C 388.000 356.360,388.180 356.000,388.400 356.000 C 388.620 356.000,388.800 355.640,388.800 355.200 C 388.800 354.760,388.980 354.400,389.200 354.400 C 389.420 354.400,389.600 354.161,389.600 353.868 C 389.600 353.575,390.049 352.450,390.598 351.368 C 391.147 350.286,391.597 348.905,391.598 348.300 C 391.599 347.695,391.780 347.200,392.000 347.200 C 392.220 347.200,392.400 346.840,392.400 346.400 C 392.400 345.960,392.580 345.600,392.800 345.600 C 393.020 345.600,393.200 345.060,393.200 344.400 C 393.200 343.740,393.380 343.200,393.600 343.200 C 393.820 343.200,394.000 342.750,394.000 342.200 C 394.000 341.650,394.180 341.200,394.400 341.200 C 394.620 341.200,394.800 340.570,394.800 339.800 C 394.800 339.030,394.980 338.400,395.200 338.400 C 395.420 338.400,395.600 337.590,395.600 336.600 C 395.600 335.610,395.780 334.800,396.000 334.800 C 396.220 334.800,396.400 333.911,396.400 332.824 C 396.400 331.737,396.580 330.736,396.800 330.600 C 397.443 330.202,397.345 203.200,396.701 203.200 C 396.427 203.200,383.377 190.375,367.701 174.701 L 339.200 146.202 339.200 198.450 M249.507 169.700 L 249.400 179.800 239.293 179.907 L 229.186 180.014 229.293 189.507 L 229.400 199.000 239.181 199.107 C 246.394 199.186,249.044 199.344,249.275 199.707 C 249.447 199.978,249.591 204.475,249.594 209.700 L 249.600 219.200 259.393 219.200 L 269.186 219.200 269.293 209.300 L 269.400 199.400 279.100 199.293 L 288.800 199.186 288.800 189.600 L 288.800 180.014 279.100 179.907 L 269.400 179.800 269.293 169.700 L 269.186 159.600 259.400 159.600 L 249.614 159.600 249.507 169.700 M134.200 168.063 C 133.320 168.531,131.626 170.014,130.435 171.357 C 129.245 172.701,122.000 180.155,114.335 187.923 C 106.671 195.690,100.400 202.215,100.400 202.423 C 100.400 203.305,165.125 202.888,165.599 202.002 C 166.334 200.628,165.957 168.070,165.200 167.591 C 163.798 166.705,135.954 167.129,134.200 168.063 M116.600 241.600 C 116.736 241.820,117.276 242.000,117.800 242.000 C 118.324 242.000,118.864 242.180,119.000 242.400 C 119.136 242.620,119.687 242.800,120.224 242.800 C 120.761 242.800,121.200 242.980,121.200 243.200 C 121.200 243.420,121.560 243.600,122.000 243.600 C 122.440 243.600,122.800 243.780,122.800 244.000 C 122.800 244.220,123.043 244.400,123.341 244.400 C 123.638 244.400,124.404 244.895,125.042 245.500 C 125.681 246.105,126.660 246.894,127.218 247.254 C 127.776 247.614,128.976 248.874,129.886 250.054 C 139.462 262.477,135.207 281.081,121.400 287.165 C 120.740 287.455,119.887 287.852,119.505 288.047 C 119.123 288.241,118.459 288.400,118.029 288.400 C 117.599 288.400,117.136 288.580,117.000 288.800 C 116.655 289.358,106.201 289.310,104.428 288.743 C 99.470 287.156,92.000 282.159,92.000 280.429 C 92.000 280.230,91.855 280.007,91.677 279.933 C 91.206 279.739,88.800 276.133,88.800 275.623 C 88.800 275.384,88.641 274.877,88.447 274.495 C 87.012 271.675,86.687 269.957,86.687 265.200 C 86.687 261.469,86.937 259.388,87.577 257.800 C 88.359 255.856,89.826 252.988,90.100 252.867 C 90.265 252.793,90.400 252.558,90.400 252.343 C 90.400 251.424,93.894 247.473,96.000 246.011 C 96.770 245.476,97.490 244.937,97.600 244.814 C 97.710 244.690,98.700 244.167,99.800 243.651 C 100.900 243.135,102.113 242.552,102.495 242.356 C 102.877 242.160,103.631 242.000,104.171 242.000 C 104.711 242.000,105.264 241.820,105.400 241.600 C 105.545 241.366,107.863 241.200,111.000 241.200 C 114.137 241.200,116.455 241.366,116.600 241.600 M292.400 241.600 C 292.400 241.820,292.893 242.000,293.496 242.000 C 298.413 242.000,309.600 252.292,309.600 256.814 C 309.600 257.220,309.780 257.664,310.000 257.800 C 310.220 257.936,310.400 258.656,310.400 259.400 C 310.400 260.144,310.580 260.864,310.800 261.000 C 311.023 261.138,311.200 262.996,311.200 265.200 C 311.200 267.404,311.023 269.262,310.800 269.400 C 310.580 269.536,310.400 270.357,310.400 271.224 C 310.400 272.091,310.220 272.800,310.000 272.800 C 309.780 272.800,309.600 273.142,309.600 273.559 C 309.600 276.482,303.462 283.969,299.400 286.000 C 298.300 286.550,297.340 287.135,297.267 287.300 C 297.193 287.465,296.799 287.600,296.390 287.600 C 295.982 287.600,295.536 287.780,295.400 288.000 C 295.264 288.220,294.724 288.400,294.200 288.400 C 293.676 288.400,293.136 288.580,293.000 288.800 C 292.855 289.035,290.505 289.200,287.305 289.200 C 282.317 289.200,280.195 288.906,278.305 287.951 C 277.923 287.758,277.338 287.600,277.005 287.600 C 276.672 287.600,276.400 287.420,276.400 287.200 C 276.400 286.980,276.040 286.800,275.600 286.800 C 275.160 286.800,274.800 286.649,274.800 286.464 C 274.800 286.280,274.362 285.929,273.827 285.685 C 269.226 283.589,263.997 275.844,262.967 269.600 C 262.389 266.094,262.833 258.674,263.652 258.168 C 263.843 258.050,264.000 257.513,264.000 256.976 C 264.000 256.439,264.180 256.000,264.400 256.000 C 264.620 256.000,264.800 255.707,264.800 255.349 C 264.800 254.018,267.247 250.489,269.906 247.984 C 272.715 245.339,273.415 244.838,276.200 243.480 C 277.080 243.051,278.113 242.542,278.495 242.350 C 278.877 242.157,279.642 242.000,280.195 242.000 C 280.748 242.000,281.200 241.820,281.200 241.600 C 281.200 241.352,283.333 241.200,286.800 241.200 C 290.267 241.200,292.400 241.352,292.400 241.600 M108.000 253.668 C 107.450 253.895,106.436 254.320,105.747 254.612 C 98.759 257.571,97.060 268.232,102.672 273.900 C 103.163 274.395,103.707 274.804,103.882 274.809 C 104.057 274.814,104.650 275.170,105.200 275.600 C 105.750 276.030,106.594 276.386,107.076 276.391 C 107.558 276.396,108.064 276.580,108.200 276.800 C 108.336 277.020,109.596 277.200,111.000 277.200 C 112.404 277.200,113.664 277.020,113.800 276.800 C 113.936 276.580,114.487 276.400,115.024 276.400 C 115.561 276.400,116.000 276.220,116.000 276.000 C 116.000 275.780,116.238 275.600,116.528 275.600 C 120.101 275.600,124.079 265.289,122.047 261.295 C 121.852 260.913,121.448 260.080,121.149 259.443 C 119.546 256.039,114.642 253.157,110.572 253.227 C 109.707 253.242,108.550 253.440,108.000 253.668 M284.000 253.676 C 279.872 255.416,278.203 256.606,277.230 258.500 C 276.919 259.105,276.515 259.600,276.332 259.600 C 276.150 259.600,276.000 260.050,276.000 260.600 C 276.000 261.150,275.820 261.600,275.600 261.600 C 275.363 261.600,275.200 263.059,275.200 265.176 C 275.200 267.143,275.380 268.864,275.600 269.000 C 275.820 269.136,276.000 269.563,276.000 269.948 C 276.000 270.334,276.360 271.036,276.800 271.508 C 277.240 271.980,277.600 272.472,277.600 272.601 C 277.600 272.949,279.512 274.799,279.882 274.809 C 280.057 274.814,280.650 275.170,281.200 275.600 C 281.750 276.030,282.594 276.386,283.076 276.391 C 283.558 276.396,284.064 276.580,284.200 276.800 C 284.336 277.020,285.596 277.200,287.000 277.200 C 288.404 277.200,289.664 277.020,289.800 276.800 C 289.936 276.580,290.487 276.400,291.024 276.400 C 291.561 276.400,292.000 276.220,292.000 276.000 C 292.000 275.780,292.241 275.600,292.536 275.600 C 293.445 275.600,296.555 272.306,297.599 270.238 C 299.114 267.237,298.757 259.600,297.102 259.600 C 296.936 259.600,296.800 259.324,296.800 258.987 C 296.800 255.897,287.694 252.118,284.000 253.676 " stroke="none" fill="#bc141c" fill-rule="evenodd"></path><path id="path2" d="M69.400 3.200 C 69.553 3.448,68.804 3.600,67.424 3.600 C 66.201 3.600,65.200 3.761,65.200 3.958 C 65.200 4.155,64.480 4.425,63.600 4.558 C 62.720 4.691,61.281 4.909,60.402 5.042 C 59.523 5.175,58.904 5.445,59.026 5.642 C 59.148 5.839,58.697 6.000,58.024 6.000 C 57.351 6.000,56.800 6.180,56.800 6.400 C 56.800 6.620,56.260 6.800,55.600 6.800 C 54.940 6.800,54.400 6.980,54.400 7.200 C 54.400 7.420,53.961 7.600,53.424 7.600 C 52.887 7.600,52.336 7.780,52.200 8.000 C 52.064 8.220,51.603 8.400,51.176 8.400 C 50.749 8.400,50.400 8.591,50.400 8.824 C 50.400 9.057,50.204 9.126,49.965 8.979 C 49.533 8.712,45.922 10.326,45.667 10.900 C 45.593 11.065,45.188 11.200,44.767 11.200 C 44.345 11.200,44.000 11.380,44.000 11.600 C 44.000 11.820,43.640 12.000,43.200 12.000 C 42.760 12.000,42.400 12.180,42.400 12.400 C 42.400 12.620,42.130 12.800,41.800 12.800 C 41.470 12.800,41.200 12.950,41.200 13.132 C 41.200 13.315,40.705 13.720,40.100 14.032 C 39.495 14.345,38.760 14.827,38.468 15.104 C 38.175 15.381,37.742 15.488,37.506 15.342 C 37.251 15.185,37.193 15.264,37.362 15.538 C 37.523 15.799,37.415 16.000,37.112 16.000 C 36.817 16.000,36.324 16.350,36.015 16.779 C 35.707 17.207,35.317 17.473,35.150 17.369 C 34.983 17.266,34.211 17.815,33.436 18.591 C 32.661 19.366,31.835 20.000,31.601 20.000 C 31.035 20.000,20.800 30.240,20.800 30.806 C 20.800 31.049,20.620 31.136,20.400 31.000 C 20.180 30.864,20.000 31.039,20.000 31.390 C 20.000 31.740,19.366 32.661,18.591 33.436 C 17.815 34.211,17.266 34.983,17.369 35.150 C 17.473 35.317,17.207 35.707,16.779 36.015 C 16.350 36.324,16.000 36.817,16.000 37.112 C 16.000 37.415,15.799 37.523,15.538 37.362 C 15.264 37.193,15.185 37.251,15.342 37.506 C 15.488 37.742,15.381 38.175,15.104 38.468 C 14.827 38.760,14.345 39.495,14.032 40.100 C 13.720 40.705,13.315 41.200,13.132 41.200 C 12.950 41.200,12.800 41.470,12.800 41.800 C 12.800 42.130,12.620 42.400,12.400 42.400 C 12.180 42.400,12.000 42.760,12.000 43.200 C 12.000 43.640,11.820 44.000,11.600 44.000 C 11.380 44.000,11.200 44.345,11.200 44.767 C 11.200 45.188,11.065 45.593,10.900 45.667 C 10.326 45.922,8.712 49.533,8.979 49.965 C 9.126 50.204,9.057 50.400,8.824 50.400 C 8.591 50.400,8.400 50.749,8.400 51.176 C 8.400 51.603,8.220 52.064,8.000 52.200 C 7.780 52.336,7.600 52.887,7.600 53.424 C 7.600 53.961,7.420 54.400,7.200 54.400 C 6.980 54.400,6.800 54.940,6.800 55.600 C 6.800 56.260,6.620 56.800,6.400 56.800 C 6.180 56.800,6.000 57.351,6.000 58.024 C 6.000 58.737,5.833 59.144,5.600 59.000 C 5.359 58.851,5.200 59.388,5.200 60.353 C 5.200 61.233,5.020 62.064,4.800 62.200 C 4.580 62.336,4.400 63.067,4.400 63.824 C 4.400 64.581,4.220 65.200,4.000 65.200 C 3.780 65.200,3.600 66.201,3.600 67.424 C 3.600 68.804,3.448 69.553,3.200 69.400 C 2.934 69.235,2.800 112.870,2.800 200.000 C 2.800 287.130,2.934 330.765,3.200 330.600 C 3.448 330.447,3.600 331.196,3.600 332.576 C 3.600 333.799,3.780 334.800,4.000 334.800 C 4.220 334.800,4.400 335.610,4.400 336.600 C 4.400 337.590,4.580 338.400,4.800 338.400 C 5.020 338.400,5.200 339.041,5.200 339.824 C 5.200 340.671,5.362 341.147,5.600 341.000 C 5.833 340.856,6.000 341.263,6.000 341.976 C 6.000 342.649,6.180 343.200,6.400 343.200 C 6.620 343.200,6.800 343.740,6.800 344.400 C 6.800 345.060,6.980 345.600,7.200 345.600 C 7.420 345.600,7.600 346.039,7.600 346.576 C 7.600 347.113,7.780 347.664,8.000 347.800 C 8.220 347.936,8.400 348.397,8.400 348.824 C 8.400 349.251,8.591 349.600,8.824 349.600 C 9.057 349.600,9.126 349.796,8.979 350.035 C 8.712 350.467,10.326 354.078,10.900 354.333 C 11.065 354.407,11.200 354.812,11.200 355.233 C 11.200 355.655,11.380 356.000,11.600 356.000 C 11.820 356.000,12.000 356.371,12.000 356.824 C 12.000 357.277,12.180 357.536,12.400 357.400 C 12.620 357.264,12.800 357.484,12.800 357.888 C 12.800 358.293,13.160 358.883,13.600 359.200 C 14.040 359.517,14.400 360.020,14.400 360.317 C 14.400 360.614,14.672 361.129,15.004 361.461 C 15.336 361.793,15.488 362.258,15.342 362.494 C 15.185 362.749,15.264 362.807,15.538 362.638 C 15.799 362.477,16.000 362.585,16.000 362.888 C 16.000 363.183,16.350 363.676,16.779 363.985 C 17.207 364.293,17.473 364.683,17.369 364.850 C 17.266 365.017,17.815 365.789,18.591 366.564 C 19.366 367.339,20.000 368.166,20.000 368.401 C 20.000 368.950,31.037 380.000,31.586 380.000 C 31.813 380.000,32.741 380.720,33.648 381.600 C 34.555 382.480,35.505 383.200,35.760 383.200 C 36.015 383.200,36.483 383.560,36.800 384.000 C 37.117 384.440,37.697 384.800,38.088 384.800 C 38.480 384.800,38.800 384.980,38.800 385.200 C 38.800 385.420,39.120 385.600,39.512 385.600 C 39.903 385.600,40.483 385.960,40.800 386.400 C 41.117 386.840,41.707 387.200,42.112 387.200 C 42.516 387.200,42.736 387.380,42.600 387.600 C 42.464 387.820,42.723 388.000,43.176 388.000 C 43.629 388.000,44.000 388.180,44.000 388.400 C 44.000 388.620,44.345 388.800,44.767 388.800 C 45.188 388.800,45.593 388.935,45.667 389.100 C 45.922 389.674,49.533 391.288,49.965 391.021 C 50.204 390.874,50.400 390.943,50.400 391.176 C 50.400 391.409,50.749 391.600,51.176 391.600 C 51.603 391.600,52.064 391.780,52.200 392.000 C 52.336 392.220,52.887 392.400,53.424 392.400 C 53.961 392.400,54.400 392.580,54.400 392.800 C 54.400 393.020,54.940 393.200,55.600 393.200 C 56.260 393.200,56.800 393.380,56.800 393.600 C 56.800 393.820,57.239 394.000,57.776 394.000 C 58.313 394.000,58.864 394.180,59.000 394.400 C 59.136 394.620,59.867 394.800,60.624 394.800 C 61.381 394.800,62.000 394.980,62.000 395.200 C 62.000 395.420,62.720 395.600,63.600 395.600 C 64.480 395.600,65.200 395.780,65.200 396.000 C 65.200 396.220,66.100 396.400,67.200 396.400 C 68.300 396.400,69.200 396.580,69.200 396.800 C 69.200 397.065,88.411 397.200,126.033 397.200 C 163.606 397.200,182.821 397.065,182.733 396.801 C 182.554 396.265,57.482 271.200,57.126 271.200 C 55.815 271.200,55.600 269.419,55.600 258.561 C 55.600 244.342,55.582 244.400,59.880 244.400 L 61.600 244.400 61.600 228.560 L 61.600 212.720 62.900 211.448 C 63.615 210.749,66.540 209.014,69.400 207.594 C 72.260 206.174,74.660 204.874,74.733 204.706 C 74.807 204.538,75.197 204.400,75.600 204.400 C 76.003 204.400,76.393 204.263,76.467 204.096 C 76.540 203.928,79.110 202.533,82.177 200.996 L 87.754 198.200 93.777 192.185 C 97.090 188.876,104.030 181.780,109.200 176.415 C 114.370 171.050,123.563 161.652,129.628 155.530 L 140.657 144.400 146.206 144.400 L 151.756 144.400 147.978 140.470 C 145.900 138.308,143.885 136.435,143.500 136.307 C 142.955 136.126,142.800 135.623,142.800 134.037 L 142.800 132.000 148.227 132.000 L 153.653 132.000 155.127 133.393 L 156.600 134.786 156.720 132.593 C 156.786 131.387,157.011 130.400,157.220 130.400 C 157.429 130.400,157.600 130.055,157.600 129.633 C 157.600 129.212,157.814 128.795,158.075 128.708 C 158.534 128.555,157.125 126.800,156.543 126.800 C 156.064 126.800,148.800 119.449,148.800 118.964 C 148.800 118.700,149.455 117.908,150.255 117.205 L 151.710 115.927 155.143 119.264 C 158.405 122.433,159.472 123.643,159.255 123.926 C 159.202 123.996,159.650 124.439,160.251 124.912 C 160.999 125.500,161.394 125.618,161.505 125.285 C 161.594 125.018,162.012 124.800,162.433 124.800 C 162.855 124.800,163.200 124.620,163.200 124.400 C 163.200 124.180,164.119 124.000,165.241 124.000 L 167.283 124.000 166.030 122.573 L 164.777 121.146 164.889 115.873 L 165.000 110.600 166.710 110.477 C 168.403 110.354,168.464 110.397,173.219 115.052 L 178.019 119.751 179.954 117.845 L 181.889 115.940 196.009 130.170 L 210.130 144.400 273.777 144.400 L 337.424 144.400 366.805 173.800 C 382.965 189.970,396.415 203.200,396.694 203.200 C 397.100 203.200,397.200 189.980,397.200 136.200 C 397.200 91.800,397.065 69.200,396.800 69.200 C 396.580 69.200,396.400 68.300,396.400 67.200 C 396.400 66.100,396.220 65.200,396.000 65.200 C 395.780 65.200,395.600 64.390,395.600 63.400 C 395.600 62.410,395.420 61.600,395.200 61.600 C 394.980 61.600,394.800 60.959,394.800 60.176 C 394.800 59.329,394.638 58.853,394.400 59.000 C 394.167 59.144,394.000 58.737,394.000 58.024 C 394.000 57.351,393.820 56.800,393.600 56.800 C 393.380 56.800,393.200 56.260,393.200 55.600 C 393.200 54.940,393.020 54.400,392.800 54.400 C 392.580 54.400,392.400 53.961,392.400 53.424 C 392.400 52.887,392.220 52.336,392.000 52.200 C 391.780 52.064,391.600 51.603,391.600 51.176 C 391.600 50.749,391.409 50.400,391.176 50.400 C 390.943 50.400,390.874 50.204,391.021 49.965 C 391.288 49.533,389.674 45.922,389.100 45.667 C 388.935 45.593,388.800 45.188,388.800 44.767 C 388.800 44.345,388.620 44.000,388.400 44.000 C 388.180 44.000,388.000 43.640,388.000 43.200 C 388.000 42.760,387.820 42.400,387.600 42.400 C 387.380 42.400,387.200 42.170,387.200 41.888 C 387.200 41.607,386.840 41.117,386.400 40.800 C 385.960 40.483,385.600 39.980,385.600 39.683 C 385.600 39.386,385.328 38.871,384.996 38.539 C 384.664 38.207,384.512 37.742,384.658 37.506 C 384.815 37.251,384.736 37.193,384.462 37.362 C 384.188 37.531,384.000 37.393,384.000 37.024 C 384.000 36.681,383.820 36.400,383.600 36.400 C 383.380 36.400,383.200 36.125,383.200 35.789 C 383.200 35.454,382.385 34.364,381.389 33.368 C 380.392 32.371,379.701 31.360,379.851 31.117 C 380.015 30.852,379.940 30.790,379.662 30.962 C 379.408 31.119,379.200 31.049,379.200 30.807 C 379.200 30.233,369.767 20.800,369.193 20.800 C 368.951 20.800,368.864 20.620,369.000 20.400 C 369.136 20.180,368.952 20.000,368.592 20.000 C 368.232 20.000,367.246 19.280,366.400 18.400 C 365.554 17.520,364.579 16.800,364.231 16.800 C 363.884 16.800,363.600 16.620,363.600 16.400 C 363.600 16.180,363.306 16.000,362.947 16.000 C 362.588 16.000,362.003 15.684,361.647 15.297 C 361.291 14.911,360.505 14.340,359.900 14.030 C 359.295 13.719,358.800 13.315,358.800 13.132 C 358.800 12.950,358.530 12.800,358.200 12.800 C 357.870 12.800,357.600 12.620,357.600 12.400 C 357.600 12.180,357.240 12.000,356.800 12.000 C 356.360 12.000,356.000 11.820,356.000 11.600 C 356.000 11.380,355.655 11.200,355.233 11.200 C 354.812 11.200,354.407 11.065,354.333 10.900 C 354.078 10.326,350.467 8.712,350.035 8.979 C 349.796 9.126,349.600 9.057,349.600 8.824 C 349.600 8.591,349.251 8.400,348.824 8.400 C 348.397 8.400,347.936 8.220,347.800 8.000 C 347.664 7.780,347.113 7.600,346.576 7.600 C 346.039 7.600,345.600 7.420,345.600 7.200 C 345.600 6.980,345.060 6.800,344.400 6.800 C 343.740 6.800,343.200 6.620,343.200 6.400 C 343.200 6.180,342.649 6.000,341.976 6.000 C 341.263 6.000,340.856 5.833,341.000 5.600 C 341.147 5.362,340.671 5.200,339.824 5.200 C 339.041 5.200,338.400 5.020,338.400 4.800 C 338.400 4.580,337.590 4.400,336.600 4.400 C 335.610 4.400,334.800 4.220,334.800 4.000 C 334.800 3.780,333.799 3.600,332.576 3.600 C 331.196 3.600,330.447 3.448,330.600 3.200 C 330.765 2.934,287.130 2.800,200.000 2.800 C 112.870 2.800,69.235 2.934,69.400 3.200 M176.800 135.332 C 176.800 137.015,176.880 137.156,177.900 137.273 C 178.986 137.398,179.003 137.445,179.200 140.800 L 179.400 144.200 183.591 144.315 L 187.781 144.430 183.591 140.141 C 181.286 137.782,178.815 135.327,178.100 134.685 L 176.800 133.517 176.800 135.332 " stroke="none" fill="#eb1c24" fill-rule="evenodd"></path><path id="path3" d="M165.900 110.682 C 166.395 110.778,167.205 110.778,167.700 110.682 C 168.195 110.587,167.790 110.509,166.800 110.509 C 165.810 110.509,165.405 110.587,165.900 110.682 M149.875 117.522 C 148.398 119.063,148.369 119.000,152.300 122.809 L 155.800 126.200 152.500 122.792 C 148.772 118.942,148.816 119.045,150.275 117.522 C 150.866 116.905,151.260 116.400,151.150 116.400 C 151.040 116.400,150.466 116.905,149.875 117.522 M184.432 118.789 C 184.414 119.113,183.277 120.553,181.904 121.989 L 179.408 124.600 182.153 121.947 C 183.797 120.359,184.811 119.075,184.681 118.747 C 184.507 118.310,184.457 118.318,184.432 118.789 M158.935 123.495 C 159.077 123.725,158.474 124.562,157.596 125.356 C 156.717 126.150,156.223 126.785,156.499 126.766 C 157.352 126.708,159.699 123.709,159.154 123.372 C 158.870 123.196,158.781 123.246,158.935 123.495 M175.600 125.000 C 176.346 125.770,177.047 126.400,177.157 126.400 C 177.267 126.400,176.746 125.770,176.000 125.000 C 175.254 124.230,174.553 123.600,174.443 123.600 C 174.333 123.600,174.854 124.230,175.600 125.000 M159.455 126.655 C 158.875 127.235,158.400 127.905,158.400 128.144 C 158.400 128.382,158.676 128.184,159.013 127.702 C 159.351 127.221,160.021 126.551,160.502 126.213 C 160.984 125.876,161.182 125.600,160.944 125.600 C 160.705 125.600,160.035 126.075,159.455 126.655 M182.300 131.896 C 183.675 131.974,185.925 131.974,187.300 131.896 C 188.675 131.818,187.550 131.754,184.800 131.754 C 182.050 131.754,180.925 131.818,182.300 131.896 M142.962 134.000 L 143.000 136.200 148.501 136.218 L 154.001 136.235 148.621 136.106 L 143.241 135.978 143.082 133.889 L 142.924 131.800 142.962 134.000 M190.200 134.000 C 190.200 135.100,190.335 136.000,190.500 136.000 C 190.665 136.000,190.800 135.100,190.800 134.000 C 190.800 132.900,190.665 132.000,190.500 132.000 C 190.335 132.000,190.200 132.900,190.200 134.000 M154.569 137.737 C 154.455 138.033,154.425 139.608,154.502 141.237 L 154.641 144.200 154.721 140.927 C 154.799 137.686,154.811 137.651,155.900 137.487 L 157.000 137.320 155.887 137.260 C 155.276 137.227,154.682 137.442,154.569 137.737 M136.192 148.900 L 132.600 152.600 136.300 149.008 C 139.736 145.672,140.182 145.200,139.892 145.200 C 139.832 145.200,138.167 146.865,136.192 148.900 M249.293 169.493 L 249.200 179.586 239.100 179.700 L 229.000 179.814 239.113 179.907 C 246.982 179.979,249.268 179.887,249.420 179.492 C 249.527 179.213,249.563 174.578,249.500 169.192 L 249.385 159.400 249.293 169.493 M143.074 167.099 C 146.855 167.165,153.155 167.165,157.074 167.099 C 160.993 167.034,157.900 166.980,150.200 166.980 C 142.500 166.980,139.293 167.034,143.074 167.099 M133.600 168.044 C 133.050 168.498,132.826 168.753,133.101 168.610 C 135.406 167.419,135.726 167.206,135.200 167.211 C 134.870 167.215,134.150 167.589,133.600 168.044 M165.800 185.000 C 165.800 194.308,165.935 201.840,166.100 201.738 C 166.488 201.498,166.482 169.148,166.094 168.538 C 165.932 168.284,165.800 175.692,165.800 185.000 M126.606 175.100 C 123.553 178.345,122.003 180.100,123.160 179.000 C 125.494 176.783,132.583 169.200,132.323 169.200 C 132.232 169.200,129.659 171.855,126.606 175.100 M111.387 174.100 L 109.000 176.600 111.500 174.213 C 113.822 171.995,114.183 171.600,113.887 171.600 C 113.826 171.600,112.701 172.725,111.387 174.100 M103.191 182.700 L 99.800 186.200 103.300 182.809 C 106.551 179.659,106.982 179.200,106.691 179.200 C 106.631 179.200,105.056 180.775,103.191 182.700 M269.461 179.700 C 269.564 179.865,273.953 180.000,279.216 180.000 L 288.786 180.000 288.904 189.300 L 289.022 198.600 289.011 189.200 L 289.000 179.800 279.138 179.600 C 273.713 179.490,269.359 179.535,269.461 179.700 M229.547 199.307 C 229.716 199.476,234.252 199.566,239.627 199.507 L 249.400 199.399 239.319 199.199 C 233.775 199.090,229.377 199.138,229.547 199.307 M269.467 199.467 C 269.320 199.613,269.203 199.928,269.206 200.167 C 269.210 200.429,269.336 200.406,269.525 200.107 C 269.755 199.745,272.373 199.584,279.419 199.500 L 289.000 199.385 279.367 199.292 C 274.068 199.242,269.613 199.320,269.467 199.467 M249.389 209.700 L 249.400 219.400 259.000 219.411 L 268.600 219.421 259.107 219.304 L 249.614 219.186 249.496 209.593 L 249.378 200.000 249.389 209.700 M100.483 201.616 C 100.202 202.065,100.080 202.605,100.210 202.816 C 100.493 203.274,165.056 203.357,165.338 202.900 C 165.440 202.735,150.871 202.647,132.962 202.705 C 115.053 202.762,100.400 202.686,100.400 202.536 C 100.400 202.386,100.698 201.934,101.062 201.531 C 101.426 201.129,101.559 200.800,101.358 200.800 C 101.157 200.800,100.763 201.167,100.483 201.616 M109.400 236.372 C 108.878 236.577,109.407 236.676,110.921 236.656 C 112.278 236.638,112.943 236.507,112.521 236.341 C 111.577 235.968,110.394 235.980,109.400 236.372 M285.479 236.341 C 285.057 236.507,285.722 236.638,287.079 236.656 C 288.593 236.676,289.122 236.577,288.600 236.372 C 287.606 235.980,286.423 235.968,285.479 236.341 M131.430 245.173 C 132.326 246.178,133.541 247.599,134.130 248.331 C 134.718 249.063,135.200 249.500,135.200 249.303 C 135.200 249.106,133.985 247.685,132.500 246.145 C 131.015 244.605,130.533 244.168,131.430 245.173 M265.543 245.937 C 263.587 248.070,261.679 250.800,262.145 250.800 C 262.249 250.800,262.748 250.125,263.252 249.300 C 263.757 248.475,265.058 246.855,266.143 245.700 C 267.228 244.545,268.019 243.600,267.901 243.600 C 267.783 243.600,266.722 244.652,265.543 245.937 M57.452 244.716 C 57.344 244.890,57.918 244.970,58.728 244.893 C 61.202 244.659,61.493 244.495,59.524 244.446 C 58.492 244.421,57.559 244.542,57.452 244.716 M95.029 246.629 C 94.605 246.938,94.336 247.269,94.430 247.363 C 94.524 247.457,94.948 247.281,95.371 246.971 C 95.795 246.662,96.064 246.331,95.970 246.237 C 95.876 246.143,95.452 246.319,95.029 246.629 M127.410 247.856 C 128.075 248.485,129.139 249.540,129.773 250.200 C 130.427 250.880,130.264 250.567,129.398 249.479 C 128.557 248.423,127.494 247.368,127.035 247.135 C 126.473 246.850,126.595 247.086,127.410 247.856 M268.661 249.170 C 267.417 250.474,266.400 251.674,266.400 251.837 C 266.400 252.000,266.454 252.058,266.520 251.967 C 266.587 251.875,267.694 250.675,268.981 249.300 C 270.269 247.925,271.232 246.800,271.122 246.800 C 271.012 246.800,269.904 247.867,268.661 249.170 M304.000 248.200 C 304.746 248.970,305.447 249.600,305.557 249.600 C 305.667 249.600,305.146 248.970,304.400 248.200 C 303.654 247.430,302.953 246.800,302.843 246.800 C 302.733 246.800,303.254 247.430,304.000 248.200 M136.200 251.600 C 136.541 252.260,136.911 252.800,137.021 252.800 C 137.131 252.800,136.941 252.260,136.600 251.600 C 136.259 250.940,135.889 250.400,135.779 250.400 C 135.669 250.400,135.859 250.940,136.200 251.600 M339.900 251.082 C 340.395 251.178,341.205 251.178,341.700 251.082 C 342.195 250.987,341.790 250.909,340.800 250.909 C 339.810 250.909,339.405 250.987,339.900 251.082 M131.200 252.159 C 131.200 252.247,131.740 253.345,132.400 254.600 C 133.060 255.855,133.600 257.212,133.600 257.617 C 133.600 258.022,133.763 258.454,133.963 258.577 C 134.559 258.946,134.009 257.162,132.705 254.500 C 131.621 252.288,131.200 251.633,131.200 252.159 M344.492 260.969 C 344.412 268.569,344.309 269.848,343.715 270.569 L 343.030 271.400 343.923 270.581 C 344.802 269.774,344.814 269.628,344.700 260.981 L 344.584 252.200 344.492 260.969 M137.202 253.676 C 137.201 254.048,137.380 254.464,137.600 254.600 C 137.820 254.736,138.021 255.242,138.046 255.724 C 138.076 256.276,138.155 256.369,138.261 255.975 C 138.354 255.631,138.154 254.821,137.817 254.175 C 137.437 253.444,137.204 253.256,137.202 253.676 M88.151 256.300 C 88.028 256.685,87.776 257.360,87.591 257.800 C 86.350 260.750,86.389 271.851,87.642 272.626 C 87.839 272.748,88.000 273.186,88.000 273.600 C 88.000 274.014,88.178 274.463,88.395 274.597 C 88.790 274.841,88.657 274.185,87.991 272.600 C 87.342 271.058,87.087 268.967,87.087 265.200 C 87.087 261.433,87.342 259.342,87.991 257.800 C 88.559 256.449,88.785 255.600,88.575 255.600 C 88.465 255.600,88.274 255.915,88.151 256.300 M102.006 256.994 C 101.263 257.761,100.732 258.450,100.827 258.525 C 100.922 258.600,101.606 257.973,102.346 257.131 C 104.029 255.218,103.812 255.131,102.006 256.994 M82.958 257.766 C 82.838 258.078,82.805 258.843,82.884 259.466 C 83.002 260.391,83.064 260.287,83.225 258.900 C 83.427 257.151,83.338 256.775,82.958 257.766 M138.800 258.176 C 138.800 258.713,138.947 259.244,139.128 259.355 C 139.308 259.467,139.377 259.027,139.282 258.379 C 139.072 256.949,138.800 256.835,138.800 258.176 M121.100 259.199 C 121.375 259.508,121.600 260.073,121.600 260.456 C 121.600 260.839,121.754 261.248,121.942 261.364 C 122.573 261.754,121.920 259.631,121.256 259.132 C 120.704 258.717,120.679 258.727,121.100 259.199 M315.193 260.919 L 315.385 263.000 315.518 261.246 C 315.591 260.281,315.505 259.344,315.326 259.165 C 315.147 258.985,315.087 259.775,315.193 260.919 M134.406 260.633 C 134.409 261.275,134.584 262.070,134.795 262.400 C 135.055 262.809,135.099 262.490,134.932 261.400 C 134.629 259.423,134.398 259.086,134.406 260.633 M258.446 260.867 C 258.421 261.234,258.296 261.864,258.170 262.267 C 257.952 262.962,257.963 262.963,258.397 262.287 C 258.648 261.896,258.773 261.266,258.673 260.887 C 258.511 260.268,258.488 260.266,258.446 260.867 M82.169 261.335 C 82.056 261.630,82.019 263.295,82.086 265.035 L 82.208 268.200 82.404 264.499 C 82.599 260.818,82.562 260.313,82.169 261.335 M99.354 261.377 C 99.232 261.694,99.203 262.279,99.289 262.677 C 99.387 263.128,99.524 262.912,99.654 262.100 C 99.871 260.738,99.730 260.396,99.354 261.377 M310.600 265.200 C 310.600 267.578,310.735 269.440,310.900 269.338 C 311.065 269.236,311.200 267.374,311.200 265.200 C 311.200 263.026,311.065 261.164,310.900 261.062 C 310.735 260.960,310.600 262.822,310.600 265.200 M262.600 262.800 C 262.448 263.491,262.407 264.141,262.509 264.242 C 262.611 264.344,262.809 263.853,262.950 263.150 C 263.091 262.447,263.131 261.798,263.041 261.708 C 262.950 261.617,262.752 262.109,262.600 262.800 M122.540 265.200 C 122.540 267.070,122.609 267.835,122.693 266.900 C 122.777 265.965,122.777 264.435,122.693 263.500 C 122.609 262.565,122.540 263.330,122.540 265.200 M298.600 265.200 C 298.600 266.258,298.735 267.040,298.900 266.938 C 299.065 266.836,299.200 266.054,299.200 265.200 C 299.200 264.346,299.065 263.564,298.900 263.462 C 298.735 263.360,298.600 264.142,298.600 265.200 M98.909 265.200 C 98.909 266.190,98.987 266.595,99.082 266.100 C 99.178 265.605,99.178 264.795,99.082 264.300 C 98.987 263.805,98.909 264.210,98.909 265.200 M262.456 266.800 C 262.456 267.130,262.611 267.760,262.800 268.200 C 263.017 268.704,263.144 268.778,263.144 268.400 C 263.144 268.070,262.989 267.440,262.800 267.000 C 262.583 266.496,262.456 266.422,262.456 266.800 M134.656 268.484 C 134.521 268.988,134.428 269.850,134.449 270.400 C 134.472 270.989,134.631 270.671,134.836 269.625 C 135.203 267.752,135.073 266.927,134.656 268.484 M199.000 268.000 L 140.200 268.204 198.876 268.302 C 237.669 268.367,257.637 268.264,257.800 268.000 C 257.936 267.780,257.992 267.644,257.924 267.698 C 257.856 267.752,231.340 267.888,199.000 268.000 M76.100 268.294 C 77.145 268.376,78.855 268.376,79.900 268.294 C 80.945 268.212,80.090 268.144,78.000 268.144 C 75.910 268.144,75.055 268.212,76.100 268.294 M318.900 268.296 C 320.165 268.375,322.235 268.375,323.500 268.296 C 324.765 268.216,323.730 268.151,321.200 268.151 C 318.670 268.151,317.635 268.216,318.900 268.296 M121.355 270.700 C 120.979 271.525,120.116 272.830,119.436 273.599 L 118.200 274.998 119.528 273.799 C 120.258 273.140,121.143 271.970,121.495 271.200 C 121.847 270.430,122.205 269.665,122.291 269.500 C 122.377 269.335,122.355 269.200,122.242 269.200 C 122.130 269.200,121.730 269.875,121.355 270.700 M325.613 269.456 C 325.631 269.944,326.757 271.376,326.961 271.171 C 327.055 271.077,326.787 270.575,326.366 270.056 C 325.945 269.536,325.606 269.266,325.613 269.456 M133.800 272.500 C 133.316 274.215,131.045 278.606,130.025 279.799 L 129.000 280.997 130.100 280.029 C 131.490 278.806,135.041 271.600,134.254 271.600 C 134.144 271.600,133.940 272.005,133.800 272.500 M88.811 275.600 C 88.815 275.930,89.189 276.650,89.644 277.200 C 90.098 277.750,90.353 277.974,90.210 277.699 C 89.019 275.394,88.806 275.074,88.811 275.600 M266.400 278.495 C 266.400 278.939,269.815 282.740,271.013 283.628 C 272.018 284.375,271.986 284.302,270.800 283.153 C 270.030 282.407,268.725 281.000,267.900 280.026 C 267.075 279.053,266.400 278.364,266.400 278.495 M126.800 283.270 C 125.268 284.688,125.086 284.939,126.200 284.097 C 127.684 282.976,129.534 281.178,129.162 281.217 C 129.073 281.227,128.010 282.151,126.800 283.270 M302.495 283.582 C 301.997 283.997,301.367 284.416,301.095 284.514 C 300.823 284.611,300.701 284.801,300.825 284.937 C 300.949 285.073,301.669 284.654,302.425 284.008 C 303.181 283.361,303.710 282.831,303.600 282.830 C 303.490 282.828,302.993 283.166,302.495 283.582 " stroke="none" fill="#dc7476" fill-rule="evenodd"></path><path id="path4" d="M164.888 115.900 L 165.000 121.000 166.800 121.000 L 168.600 121.000 168.712 115.900 L 168.824 110.800 166.800 110.800 L 164.776 110.800 164.888 115.900 M168.400 116.000 L 168.400 120.800 166.800 120.800 L 165.200 120.800 165.200 116.000 L 165.200 111.200 166.800 111.200 L 168.400 111.200 168.400 116.000 M150.175 117.700 L 149.000 119.000 150.200 117.950 C 150.860 117.372,151.670 116.802,152.000 116.681 C 152.517 116.493,152.513 116.459,151.975 116.432 C 151.631 116.414,150.821 116.985,150.175 117.700 M152.600 122.800 C 154.571 124.780,156.273 126.400,156.383 126.400 C 156.493 126.400,154.971 124.780,153.000 122.800 C 151.029 120.820,149.327 119.200,149.217 119.200 C 149.107 119.200,150.629 120.820,152.600 122.800 M181.000 122.400 C 179.250 124.160,177.621 125.600,177.379 125.600 C 176.865 125.600,175.400 124.069,175.082 123.200 C 174.894 122.683,174.859 122.687,174.832 123.225 C 174.798 123.888,176.776 126.000,177.431 126.000 C 177.644 126.000,179.340 124.470,181.200 122.600 C 183.060 120.730,184.492 119.200,184.382 119.200 C 184.271 119.200,182.750 120.640,181.000 122.400 M158.160 122.883 C 158.514 123.422,158.667 124.013,158.501 124.196 C 158.336 124.379,158.425 124.398,158.701 124.240 C 159.240 123.929,158.794 122.691,157.956 122.173 C 157.715 122.024,157.806 122.343,158.160 122.883 M165.300 124.291 C 166.125 124.378,167.475 124.378,168.300 124.291 C 169.125 124.205,168.450 124.134,166.800 124.134 C 165.150 124.134,164.475 124.205,165.300 124.291 M162.541 124.797 C 162.068 124.988,161.570 125.324,161.434 125.545 C 161.298 125.765,161.730 125.675,162.393 125.343 C 163.057 125.012,163.600 124.665,163.600 124.571 C 163.600 124.366,163.620 124.362,162.541 124.797 M170.000 124.608 C 170.000 124.681,170.558 125.020,171.240 125.360 C 172.178 125.828,172.370 125.845,172.027 125.433 C 171.619 124.941,170.000 124.282,170.000 124.608 M173.200 126.517 C 173.530 126.803,174.047 127.298,174.349 127.618 C 174.819 128.116,174.835 128.077,174.460 127.347 C 174.219 126.878,173.702 126.383,173.311 126.246 C 172.692 126.030,172.678 126.065,173.200 126.517 M158.132 128.900 C 157.028 130.410,156.771 131.603,156.901 134.608 L 157.039 137.800 157.120 134.512 C 157.179 132.088,157.408 130.854,157.993 129.812 C 158.773 128.424,158.850 127.918,158.132 128.900 M175.440 129.560 C 175.780 130.242,176.119 130.800,176.192 130.800 C 176.518 130.800,175.859 129.181,175.367 128.773 C 174.955 128.430,174.972 128.622,175.440 129.560 M176.537 134.600 C 176.539 136.360,176.609 137.030,176.693 136.089 C 176.778 135.149,176.777 133.709,176.691 132.889 C 176.605 132.070,176.536 132.840,176.537 134.600 M153.720 134.000 C 153.720 135.210,153.795 135.705,153.887 135.100 C 153.978 134.495,153.978 133.505,153.887 132.900 C 153.795 132.295,153.720 132.790,153.720 134.000 M179.600 134.000 L 179.600 136.023 184.900 135.912 L 190.200 135.800 190.200 134.000 L 190.200 132.200 184.900 132.088 L 179.600 131.977 179.600 134.000 M190.000 134.000 L 190.000 135.600 185.000 135.600 L 180.000 135.600 180.000 134.000 L 180.000 132.400 185.000 132.400 L 190.000 132.400 190.000 134.000 M178.974 141.000 L 179.000 144.600 258.255 144.701 L 337.509 144.802 338.153 145.785 C 338.735 146.673,338.807 151.778,338.899 199.084 L 339.000 251.400 340.903 251.437 L 342.805 251.474 341.003 251.315 L 339.200 251.156 339.200 198.940 C 339.200 146.792,339.199 146.722,338.373 145.562 L 337.546 144.400 258.388 144.400 L 179.231 144.400 179.089 140.900 L 178.947 137.400 178.974 141.000 M148.010 144.300 C 144.385 144.366,141.288 144.551,141.129 144.710 C 140.969 144.870,143.844 144.946,147.518 144.880 C 151.193 144.815,154.370 144.590,154.580 144.380 C 154.789 144.171,154.879 144.040,154.780 144.089 C 154.681 144.139,151.634 144.233,148.010 144.300 M128.197 157.300 L 116.200 169.400 128.300 157.403 C 134.955 150.804,140.400 145.359,140.400 145.303 C 140.400 145.020,139.347 146.055,128.197 157.300 M259.093 159.500 L 269.186 159.614 269.300 169.507 L 269.415 179.400 269.507 169.300 L 269.600 159.200 259.300 159.293 L 249.000 159.386 259.093 159.500 M135.862 166.700 C 135.760 166.865,142.302 167.000,150.400 167.000 C 158.498 167.000,164.916 166.868,164.662 166.706 C 164.052 166.318,136.102 166.312,135.862 166.700 M133.372 167.764 C 132.929 168.075,130.067 171.000,127.011 174.264 C 123.956 177.529,122.967 178.670,124.813 176.800 C 126.659 174.930,129.566 172.005,131.272 170.300 C 132.978 168.595,134.330 167.200,134.276 167.200 C 134.222 167.200,133.815 167.454,133.372 167.764 M111.614 174.190 L 109.028 177.000 111.796 174.315 C 113.318 172.838,114.481 171.573,114.381 171.505 C 114.282 171.436,113.036 172.644,111.614 174.190 M228.986 189.600 L 229.000 199.800 239.100 200.000 C 244.656 200.110,249.201 200.068,249.200 199.907 C 249.200 199.746,244.745 199.566,239.300 199.507 L 229.400 199.400 229.186 189.400 L 228.972 179.400 228.986 189.600 M96.997 189.300 L 87.800 198.600 97.100 189.403 C 105.742 180.858,106.580 180.000,106.297 180.000 C 106.240 180.000,102.055 184.185,96.997 189.300 M109.260 192.251 C 108.743 192.802,108.396 193.329,108.489 193.422 C 108.582 193.515,109.174 193.054,109.804 192.396 C 110.434 191.738,110.781 191.211,110.575 191.224 C 110.369 191.238,109.777 191.700,109.260 192.251 M86.000 199.236 C 85.336 199.779,85.269 199.915,85.800 199.640 C 87.105 198.966,87.828 198.412,87.400 198.415 C 87.180 198.417,86.550 198.786,86.000 199.236 M288.800 199.133 C 288.800 199.474,286.171 199.625,279.100 199.692 L 269.400 199.785 278.973 199.900 C 287.908 200.007,289.947 199.813,289.073 198.940 C 288.923 198.790,288.800 198.877,288.800 199.133 M269.114 210.000 C 269.051 215.280,269.135 219.600,269.300 219.600 C 269.465 219.600,269.600 215.280,269.600 210.000 C 269.600 204.720,269.516 200.400,269.414 200.400 C 269.311 200.400,269.176 204.720,269.114 210.000 M116.730 203.500 C 125.601 203.560,140.001 203.560,148.730 203.500 C 157.458 203.440,150.200 203.391,132.600 203.391 C 115.000 203.391,107.858 203.440,116.730 203.500 M65.266 209.793 C 64.753 210.076,64.123 210.525,63.866 210.791 C 63.610 211.058,64.030 210.928,64.800 210.503 C 65.570 210.078,66.470 209.625,66.800 209.497 C 67.333 209.289,67.333 209.264,66.800 209.271 C 66.470 209.275,65.780 209.510,65.266 209.793 M62.349 212.261 C 61.747 212.986,61.105 244.907,61.700 244.539 C 61.865 244.436,62.000 237.383,62.000 228.865 C 62.000 215.495,62.085 213.256,62.623 212.489 C 63.347 211.454,63.153 211.293,62.349 212.261 M106.800 236.400 L 104.600 236.670 106.600 236.707 C 107.700 236.727,108.960 236.589,109.400 236.400 C 110.302 236.012,109.962 236.012,106.800 236.400 M112.600 236.420 C 113.378 236.735,117.900 236.947,117.567 236.653 C 117.475 236.572,116.140 236.414,114.600 236.301 C 112.998 236.184,112.142 236.235,112.600 236.420 M283.200 236.270 C 281.471 236.395,279.087 236.943,277.400 237.605 C 275.365 238.403,273.600 239.256,273.600 239.442 C 273.600 239.555,273.735 239.583,273.900 239.505 C 277.598 237.748,280.677 236.806,282.828 236.772 C 283.803 236.756,284.960 236.589,285.400 236.400 C 285.847 236.208,285.935 236.075,285.600 236.098 C 285.270 236.121,284.190 236.198,283.200 236.270 M288.600 236.415 C 289.040 236.596,290.334 236.756,291.476 236.772 C 292.618 236.787,293.664 236.980,293.800 237.200 C 293.936 237.420,294.532 237.579,295.124 237.554 C 295.924 237.519,295.995 237.462,295.400 237.333 C 294.960 237.237,294.240 237.002,293.800 236.809 C 293.360 236.617,291.830 236.376,290.400 236.273 C 288.844 236.162,288.121 236.219,288.600 236.415 M103.093 237.087 C 101.704 237.297,99.514 238.394,100.476 238.398 C 100.848 238.399,101.264 238.220,101.400 238.000 C 101.536 237.780,102.166 237.600,102.800 237.600 C 103.434 237.600,104.064 237.420,104.200 237.200 C 104.336 236.980,104.392 236.827,104.324 236.860 C 104.256 236.893,103.702 236.995,103.093 237.087 M118.800 237.471 C 120.057 237.675,120.706 237.942,124.326 239.747 C 125.935 240.550,127.158 241.056,127.045 240.873 C 126.932 240.689,125.615 239.949,124.119 239.228 C 122.624 238.506,121.087 237.755,120.705 237.558 C 120.323 237.361,119.513 237.225,118.905 237.254 C 117.838 237.307,117.834 237.314,118.800 237.471 M296.623 238.037 C 296.746 238.237,297.101 238.400,297.411 238.400 C 297.722 238.400,298.617 238.760,299.400 239.200 C 300.183 239.640,301.044 239.999,301.312 239.998 C 301.902 239.996,298.451 238.211,297.250 237.897 C 296.782 237.775,296.500 237.838,296.623 238.037 M97.314 239.486 C 96.167 240.077,95.293 240.626,95.373 240.706 C 95.536 240.869,99.600 238.804,99.600 238.558 C 99.600 238.314,99.537 238.340,97.314 239.486 M271.281 240.572 C 269.525 241.814,269.097 242.345,270.600 241.418 C 272.678 240.135,273.391 239.599,272.989 239.620 C 272.775 239.630,272.007 240.059,271.281 240.572 M93.100 242.147 C 92.495 242.667,92.000 243.241,92.000 243.421 C 92.000 243.602,92.495 243.288,93.100 242.725 C 93.705 242.161,94.470 241.602,94.800 241.481 C 95.333 241.287,95.333 241.260,94.800 241.232 C 94.470 241.215,93.705 241.627,93.100 242.147 M108.500 241.496 C 109.765 241.575,111.835 241.575,113.100 241.496 C 114.365 241.416,113.330 241.351,110.800 241.351 C 108.270 241.351,107.235 241.416,108.500 241.496 M127.600 241.290 C 127.600 241.360,128.995 242.673,130.700 244.209 C 132.405 245.744,133.357 246.458,132.815 245.795 C 131.935 244.718,127.600 240.973,127.600 241.290 M284.500 241.496 C 285.765 241.575,287.835 241.575,289.100 241.496 C 290.365 241.416,289.330 241.351,286.800 241.351 C 284.270 241.351,283.235 241.416,284.500 241.496 M104.800 241.871 C 104.250 241.960,103.440 242.193,103.000 242.387 C 102.560 242.582,101.930 242.830,101.600 242.939 C 101.221 243.064,101.323 243.148,101.876 243.168 C 102.358 243.186,102.864 243.020,103.000 242.800 C 103.136 242.580,103.766 242.400,104.400 242.400 C 105.034 242.400,105.664 242.220,105.800 242.000 C 105.936 241.780,105.992 241.625,105.924 241.654 C 105.856 241.684,105.350 241.782,104.800 241.871 M116.245 242.072 C 116.356 242.253,116.876 242.400,117.400 242.400 C 117.924 242.400,118.464 242.580,118.600 242.800 C 118.736 243.020,119.199 243.200,119.629 243.200 C 120.439 243.200,121.622 243.763,122.993 244.800 C 123.726 245.354,123.745 245.347,123.251 244.708 C 122.599 243.866,120.539 242.800,119.562 242.800 C 119.169 242.800,118.749 242.641,118.629 242.446 C 118.508 242.251,117.877 242.014,117.226 241.918 C 116.575 241.823,116.133 241.892,116.245 242.072 M280.800 241.871 C 279.401 242.098,278.135 242.655,273.600 245.040 C 273.050 245.330,271.340 246.879,269.800 248.483 L 267.000 251.400 269.815 248.696 C 272.553 246.064,273.914 245.106,276.800 243.777 C 277.570 243.423,278.513 242.968,278.895 242.766 C 279.277 242.565,280.031 242.400,280.571 242.400 C 281.111 242.400,281.664 242.220,281.800 242.000 C 281.936 241.780,281.992 241.625,281.924 241.654 C 281.856 241.684,281.350 241.782,280.800 241.871 M292.216 242.026 C 292.312 242.181,292.923 242.386,293.574 242.482 C 294.225 242.577,294.679 242.529,294.584 242.374 C 294.488 242.219,293.877 242.014,293.226 241.918 C 292.575 241.823,292.121 241.871,292.216 242.026 M266.388 244.700 L 263.800 247.400 266.500 244.812 C 267.985 243.388,269.200 242.173,269.200 242.112 C 269.200 241.817,268.793 242.192,266.388 244.700 M305.882 243.402 C 306.355 243.734,307.597 244.949,308.642 246.102 C 309.686 247.256,310.294 247.840,309.993 247.400 C 309.052 246.025,305.850 242.800,305.426 242.800 C 305.204 242.800,305.409 243.071,305.882 243.402 M98.800 244.444 C 98.250 244.898,98.026 245.153,98.301 245.010 C 100.606 243.819,100.926 243.606,100.400 243.611 C 100.070 243.615,99.350 243.989,98.800 244.444 M299.346 245.002 C 300.805 245.763,301.175 245.768,300.176 245.013 C 299.749 244.690,299.130 244.421,298.800 244.415 C 298.470 244.410,298.716 244.674,299.346 245.002 M124.035 245.300 C 124.128 245.355,124.833 245.940,125.602 246.600 L 127.000 247.800 125.825 246.500 C 125.179 245.785,124.474 245.200,124.258 245.200 C 124.043 245.200,123.943 245.245,124.035 245.300 M55.793 247.300 C 55.659 248.015,55.605 253.306,55.674 259.059 C 55.836 272.479,54.832 271.200,65.200 271.200 C 73.726 271.200,74.400 271.030,74.400 268.883 C 74.400 268.081,74.629 268.021,78.201 267.892 L 82.002 267.754 78.101 267.777 C 74.251 267.800,74.198 267.813,74.062 268.800 C 73.791 270.760,73.613 270.800,65.200 270.800 C 55.138 270.800,56.200 272.342,56.200 257.739 C 56.200 245.486,56.188 245.188,55.793 247.300 M302.339 247.201 C 303.251 247.862,304.538 249.149,305.199 250.061 C 305.859 250.974,306.400 251.499,306.400 251.228 C 306.400 250.957,305.334 249.670,304.032 248.368 C 302.730 247.066,301.443 246.000,301.172 246.000 C 300.901 246.000,301.426 246.541,302.339 247.201 M94.200 247.788 C 93.540 248.329,93.143 248.778,93.317 248.786 C 93.492 248.794,94.120 248.350,94.713 247.800 C 96.098 246.516,95.761 246.508,94.200 247.788 M86.790 249.014 C 86.104 250.011,85.631 251.046,85.740 251.314 C 85.883 251.668,85.945 251.657,85.968 251.272 C 85.986 250.982,86.549 249.947,87.219 248.972 C 87.890 247.997,88.348 247.200,88.238 247.200 C 88.128 247.200,87.477 248.016,86.790 249.014 M310.828 248.600 C 310.828 248.820,311.086 249.450,311.400 250.000 C 311.714 250.550,311.972 250.820,311.972 250.600 C 311.972 250.380,311.714 249.750,311.400 249.200 C 311.086 248.650,310.828 248.380,310.828 248.600 M135.209 249.337 C 135.204 249.522,135.560 250.131,136.000 250.691 C 136.440 251.250,136.796 251.549,136.791 251.354 C 136.779 250.887,135.220 248.900,135.209 249.337 M129.829 250.881 C 130.457 251.696,131.058 252.275,131.165 252.169 C 131.272 252.062,130.758 251.395,130.023 250.687 L 128.687 249.400 129.829 250.881 M261.414 251.035 C 261.041 251.604,260.805 252.138,260.889 252.222 C 260.973 252.307,261.358 251.841,261.744 251.188 C 262.606 249.728,262.348 249.609,261.414 251.035 M266.336 252.500 C 265.359 254.083,264.660 255.594,264.833 255.752 C 264.925 255.836,265.487 254.936,266.082 253.752 C 267.193 251.543,267.324 250.901,266.336 252.500 M306.815 252.200 C 306.817 252.420,307.186 253.050,307.636 253.600 C 308.179 254.264,308.315 254.331,308.040 253.800 C 307.366 252.495,306.812 251.772,306.815 252.200 M110.800 253.098 C 112.230 253.177,113.571 253.413,113.780 253.621 C 113.989 253.830,114.529 254.004,114.980 254.009 C 115.431 254.014,116.250 254.370,116.800 254.800 C 117.350 255.230,117.977 255.586,118.193 255.591 C 118.409 255.596,117.923 255.150,117.114 254.600 C 116.305 254.050,115.284 253.600,114.845 253.600 C 114.406 253.600,113.936 253.420,113.800 253.200 C 113.664 252.980,112.348 252.835,110.876 252.877 L 108.200 252.954 110.800 253.098 M286.800 253.098 C 288.230 253.177,289.571 253.413,289.780 253.621 C 289.989 253.830,290.456 254.000,290.819 254.000 C 292.078 254.000,293.973 255.252,295.841 257.320 C 296.875 258.464,297.528 259.040,297.291 258.600 C 296.259 256.680,292.279 253.600,290.829 253.600 C 290.399 253.600,289.936 253.420,289.800 253.200 C 289.664 252.980,288.348 252.835,286.876 252.877 L 284.200 252.954 286.800 253.098 M313.209 253.105 C 313.204 253.383,313.408 254.013,313.662 254.505 C 314.672 256.459,314.800 256.825,314.800 257.771 C 314.800 258.311,314.954 258.848,315.142 258.964 C 315.526 259.201,315.315 257.429,314.813 256.200 C 313.913 253.996,313.217 252.653,313.209 253.105 M282.520 253.642 C 281.816 253.846,281.144 254.168,281.027 254.357 C 280.794 254.734,283.417 253.917,283.859 253.474 C 284.175 253.159,284.207 253.155,282.520 253.642 M102.467 256.300 L 100.965 257.800 102.382 256.601 C 103.162 255.942,103.971 255.267,104.180 255.101 C 104.389 254.935,104.427 254.800,104.265 254.800 C 104.102 254.800,103.293 255.475,102.467 256.300 M308.416 255.276 C 308.407 255.648,308.580 256.064,308.800 256.200 C 309.020 256.336,309.221 256.842,309.246 257.324 C 309.280 257.964,309.341 258.018,309.471 257.523 C 309.569 257.151,309.376 256.341,309.041 255.723 C 308.634 254.972,308.427 254.824,308.416 255.276 M278.175 256.500 L 277.000 257.800 278.200 256.750 C 278.860 256.172,279.670 255.602,280.000 255.481 C 280.517 255.293,280.513 255.259,279.975 255.232 C 279.631 255.214,278.821 255.785,278.175 256.500 M264.155 257.100 C 264.034 257.485,263.770 258.213,263.567 258.719 C 263.365 259.224,263.224 260.304,263.253 261.119 L 263.307 262.600 263.605 260.800 C 263.769 259.810,264.093 258.415,264.324 257.700 C 264.555 256.985,264.661 256.400,264.560 256.400 C 264.458 256.400,264.276 256.715,264.155 257.100 M258.558 257.766 C 258.438 258.078,258.405 258.843,258.484 259.466 C 258.602 260.391,258.664 260.287,258.825 258.900 C 259.027 257.151,258.938 256.775,258.558 257.766 M276.668 258.300 C 274.925 261.209,274.800 261.684,274.800 265.389 C 274.800 267.459,274.935 269.237,275.100 269.339 C 275.265 269.442,275.343 267.838,275.273 265.775 C 275.159 262.417,275.251 261.814,276.156 260.012 C 276.987 258.358,277.339 257.178,276.668 258.300 M133.968 259.900 C 134.159 261.281,134.187 261.309,134.319 260.251 C 134.398 259.619,134.305 258.945,134.112 258.752 C 133.910 258.550,133.849 259.040,133.968 259.900 M310.000 259.976 C 310.000 260.623,310.142 261.241,310.316 261.348 C 310.490 261.456,310.561 260.927,310.473 260.172 C 310.276 258.491,310.000 258.377,310.000 259.976 M139.778 263.400 L 139.800 267.800 198.712 267.901 C 245.645 267.982,257.656 267.901,257.783 267.501 C 258.118 266.440,258.269 260.765,257.948 261.271 C 257.763 261.562,257.609 263.105,257.606 264.700 L 257.600 267.600 198.814 267.600 L 140.027 267.600 139.891 263.300 L 139.755 259.000 139.778 263.400 M315.684 263.700 L 315.600 268.000 320.571 268.000 C 324.959 268.000,325.566 268.082,325.748 268.700 C 325.908 269.245,325.936 269.222,325.872 268.600 C 325.796 267.855,325.454 267.792,320.909 267.688 L 316.028 267.576 315.898 263.488 L 315.769 259.400 315.684 263.700 M298.400 262.176 C 298.400 262.713,298.547 263.244,298.728 263.355 C 298.908 263.467,298.977 263.027,298.882 262.379 C 298.672 260.949,298.400 260.835,298.400 262.176 M134.600 265.426 C 134.600 267.267,134.722 268.464,134.872 268.086 C 135.242 267.153,135.258 263.110,134.894 262.540 C 134.732 262.287,134.600 263.586,134.600 265.426 M98.643 263.433 C 98.310 264.301,98.348 266.499,98.706 267.062 C 98.868 267.316,99.000 266.461,99.000 265.162 C 99.000 262.561,98.992 262.523,98.643 263.433 M122.901 265.400 C 122.905 266.280,122.987 266.593,123.083 266.095 C 123.179 265.598,123.175 264.878,123.075 264.495 C 122.975 264.113,122.896 264.520,122.901 265.400 M262.428 265.233 C 262.444 265.765,262.619 266.560,262.819 267.000 C 263.071 267.558,263.107 267.315,262.938 266.200 C 262.655 264.343,262.387 263.836,262.428 265.233 M298.554 267.377 C 298.432 267.694,298.403 268.279,298.489 268.677 C 298.587 269.128,298.724 268.912,298.854 268.100 C 299.071 266.738,298.930 266.396,298.554 267.377 M263.270 269.676 C 263.231 270.708,263.380 271.664,263.600 271.800 C 263.820 271.936,264.000 272.369,264.000 272.762 C 264.000 273.435,265.103 276.000,265.392 276.000 C 265.659 276.000,265.093 274.381,264.752 274.170 C 264.558 274.051,264.400 273.549,264.400 273.056 C 264.400 272.563,264.231 271.989,264.025 271.780 C 263.819 271.571,263.581 270.590,263.495 269.600 L 263.340 267.800 263.270 269.676 M310.156 269.371 C 310.035 269.685,310.004 270.360,310.086 270.871 C 310.195 271.554,310.288 271.404,310.437 270.300 C 310.647 268.747,310.536 268.381,310.156 269.371 M99.200 269.388 C 99.200 270.105,101.054 272.877,102.299 274.020 L 103.800 275.399 102.364 273.799 C 101.573 272.920,100.620 271.525,100.245 270.700 C 99.644 269.378,99.200 268.821,99.200 269.388 M134.054 270.267 C 134.025 270.744,133.896 271.464,133.770 271.867 C 133.552 272.561,133.564 272.562,133.996 271.888 C 134.247 271.497,134.375 270.777,134.281 270.288 C 134.109 269.401,134.109 269.401,134.054 270.267 M326.562 270.300 C 327.305 271.177,327.525 271.200,335.200 271.200 C 342.875 271.200,343.095 271.177,343.838 270.300 C 344.599 269.401,344.599 269.401,343.769 270.100 C 343.039 270.714,341.985 270.800,335.200 270.800 C 328.415 270.800,327.361 270.714,326.631 270.100 C 325.801 269.401,325.801 269.401,326.562 270.300 M295.662 273.224 C 294.706 274.317,293.176 275.562,292.262 275.991 C 291.348 276.420,290.827 276.777,291.105 276.785 C 292.232 276.818,296.343 273.547,297.245 271.900 C 297.831 270.829,297.551 271.064,295.662 273.224 M276.422 271.800 C 276.427 272.329,277.542 273.791,277.769 273.565 C 277.866 273.468,277.602 272.941,277.182 272.394 C 276.761 271.847,276.420 271.580,276.422 271.800 M280.792 275.923 C 281.794 276.750,283.755 277.375,283.364 276.742 C 283.248 276.554,282.887 276.400,282.562 276.400 C 282.238 276.400,281.483 276.109,280.886 275.753 L 279.800 275.105 280.792 275.923 M104.800 276.091 C 107.520 277.287,108.817 277.588,111.276 277.594 C 112.748 277.597,114.037 277.465,114.139 277.300 C 114.242 277.135,113.137 277.062,111.683 277.138 C 109.227 277.266,106.309 276.703,105.420 275.930 C 105.211 275.749,104.761 275.611,104.420 275.625 C 104.062 275.640,104.223 275.837,104.800 276.091 M307.381 277.237 C 307.029 277.918,306.812 278.545,306.899 278.632 C 306.986 278.719,307.356 278.162,307.722 277.395 C 308.544 275.670,308.259 275.538,307.381 277.237 M265.615 276.600 C 265.617 276.820,265.986 277.450,266.436 278.000 C 266.979 278.664,267.115 278.731,266.840 278.200 C 266.166 276.895,265.612 276.172,265.615 276.600 M287.000 277.200 L 283.800 277.453 286.876 277.527 C 288.580 277.567,290.063 277.422,290.200 277.200 C 290.336 276.980,290.392 276.833,290.324 276.873 C 290.256 276.914,288.760 277.061,287.000 277.200 M305.295 280.223 C 304.803 280.974,304.400 281.723,304.400 281.887 C 304.400 282.051,304.866 281.500,305.436 280.662 C 306.005 279.824,306.408 279.075,306.331 278.998 C 306.254 278.920,305.788 279.472,305.295 280.223 M267.200 279.325 C 267.200 279.394,267.785 279.979,268.500 280.625 L 269.800 281.800 268.625 280.500 C 267.530 279.288,267.200 279.016,267.200 279.325 M92.037 280.200 C 92.964 281.612,94.168 282.857,95.400 283.677 C 96.575 284.460,96.573 284.453,95.302 283.338 C 94.589 282.712,93.444 281.570,92.758 280.800 C 92.072 280.030,91.748 279.760,92.037 280.200 M127.625 282.169 L 126.250 283.800 127.805 282.313 C 128.660 281.496,129.279 280.762,129.180 280.683 C 129.081 280.603,128.381 281.272,127.625 282.169 M271.887 284.009 C 272.595 284.751,273.242 285.278,273.325 285.179 C 273.408 285.081,272.829 284.473,272.038 283.829 L 270.600 282.658 271.887 284.009 M121.608 286.430 C 120.402 287.073,119.632 287.600,119.896 287.600 C 120.410 287.600,123.151 286.162,123.780 285.562 C 124.359 285.010,123.993 285.156,121.608 286.430 M274.362 285.707 C 275.104 286.665,279.132 288.461,278.597 287.595 C 278.463 287.378,278.091 287.200,277.771 287.200 C 277.143 287.200,275.873 286.558,274.607 285.600 C 273.870 285.043,273.853 285.051,274.362 285.707 M295.000 287.600 C 294.864 287.820,294.268 288.021,293.676 288.046 C 292.907 288.080,292.815 288.148,293.353 288.286 C 293.766 288.392,294.486 288.294,294.953 288.069 C 295.419 287.843,296.070 287.570,296.400 287.461 C 296.779 287.336,296.677 287.252,296.124 287.232 C 295.642 287.214,295.136 287.380,295.000 287.600 M117.800 288.000 L 116.600 288.305 117.676 288.353 C 118.268 288.379,118.864 288.220,119.000 288.000 C 119.136 287.780,119.192 287.621,119.124 287.647 C 119.056 287.673,118.460 287.832,117.800 288.000 M103.200 288.155 C 103.200 288.240,103.730 288.387,104.379 288.482 C 105.027 288.577,105.467 288.508,105.355 288.328 C 105.157 288.007,103.200 287.850,103.200 288.155 M279.200 288.155 C 279.200 288.240,279.730 288.387,280.379 288.482 C 281.027 288.577,281.467 288.508,281.355 288.328 C 281.157 288.007,279.200 287.850,279.200 288.155 M111.000 288.800 L 105.800 289.037 110.876 289.118 C 113.921 289.167,116.052 289.040,116.200 288.800 C 116.336 288.580,116.392 288.437,116.324 288.482 C 116.256 288.527,113.860 288.670,111.000 288.800 M287.000 288.800 L 281.800 289.037 286.876 289.118 C 289.921 289.167,292.052 289.040,292.200 288.800 C 292.336 288.580,292.392 288.437,292.324 288.482 C 292.256 288.527,289.860 288.670,287.000 288.800 " stroke="none" fill="#dc888c" fill-rule="evenodd"></path></g></svg>